<svg width="175" height="254" xmlns="http://www.w3.org/2000/svg"><g fill="#323232" fill-rule="evenodd"><path d="M129.53 149.706l-20.412 21.678v39.63c0 3.017 0 5.28-.3 7.542-.9 11.917-8.096 19.307-21.742 19.307-13.796 0-20.992-7.39-21.892-19.307-.3-2.263-.3-4.525-.3-7.542l-.132-40.025-20.67-21.283.26 59.196c0 4.374 0 7.391.299 12.218 1.35 17.347 13.346 32.28 42.435 32.28 28.75 0 40.766-14.74 42.244-31.942.01-.114.031-.224.04-.338.3-4.827.3-7.844.3-12.218l.13-59.196h-.26"/><path d="M173.566 135.193c1.078-.574 1.297-1.428 1.249-2.417-.041-.847-.249-1.708-.521-2.515-.746-2.208-2.161-3.952-3.943-5.406-.427-.347-.714-.636-.587-1.317.323-1.725.624-3.471.716-5.221.328-6.326.635-12.655.817-18.986.129-4.498.063-9.001.042-13.503-.005-.988-.141-1.984-.292-2.965a110.8 110.8 0 0 0-.891-5.102c-.27-1.334-.579-2.667-.974-3.968a241.859 241.859 0 0 0-2.58-8.052 47.117 47.117 0 0 0-1.815-4.533c-1.075-2.323-2.16-4.65-3.396-6.888-1.357-2.454-2.795-4.876-4.376-7.188-1.679-2.452-3.528-4.79-5.375-7.12-2.446-3.087-5.285-5.808-8.248-8.372-3.116-2.7-6.466-5.097-9.982-7.268a82.15 82.15 0 0 0-16.298-7.722c-6.94-2.406-13.832-4.904-20.168-8.71-3.082-1.85-6.066-3.825-7.908-7.34v176.885c.142-.042.235-.042.288-.089 2.603-2.308 5.214-4.61 7.802-6.936a684.701 684.701 0 0 0 7.471-6.815c.2-.186.35-.62.282-.872-.33-1.22-.79-2.407-1.115-3.629-.6-2.252-1.161-4.515-1.693-6.785-.374-1.599-.693-3.211-1-4.825-.307-1.614-.631-3.228-.834-4.857-.49-3.938-.707-7.895-.51-11.864.085-1.733.33-3.446 1.124-5.023.327-.646.697-1.184 1.515-1.387a135.15 135.15 0 0 0 17.687-5.721c5.438-2.183 10.84-4.467 16.169-6.903 4.87-2.227 9.624-4.707 14.418-7.098 1.355-.676 2.67-1.432 4.169-2.24v1.032c0 7.034-.01 14.067.017 21.1.003.626-.195.955-.722 1.23-3.617 1.892-7.217 3.815-10.833 5.71-2.624 1.374-5.254 2.738-7.882 4.105v26.06c2.415-3.836 5.247-7.41 8.598-10.65 8.593-8.31 18.513-13.587 29.579-15.835M38.614 206.524V135.04c-1.004-.528-2.006-1.06-3.01-1.588-4.886-2.57-9.77-5.142-14.68-7.666-.593-.304-.692-.649-.691-1.23.015-7.033.01-14.066.01-21.099v-.9c.294.1.51.144.698.242 2.949 1.55 5.847 3.205 8.85 4.64 6.216 2.967 12.427 5.963 18.754 8.68 7.806 3.352 15.81 6.194 24.059 8.269.887.222 1.384.733 1.68 1.531.696 1.87 1.122 3.793 1.127 5.8.008 3.388.083 6.773-.632 10.125-.442 2.07-.635 4.192-1.045 6.269-.505 2.56-1.104 5.102-1.69 7.644-.42 1.819-.883 3.627-1.332 5.438-.033.13-.098.254-.16.375-.565 1.094-.51 1.733.373 2.56 1.555 1.453 3.146 2.868 4.734 4.287 1.894 1.691 3.804 3.365 5.7 5.054 1.496 1.33 2.982 2.674 4.557 4.09V.74c-.413.665-.721 1.503-1.305 2.037-1.666 1.526-3.33 3.104-5.2 4.346-4.416 2.933-9.265 5.035-14.197 6.921-4.39 1.68-8.867 3.145-13.2 4.96-3.11 1.304-6.13 2.886-9.038 4.603-2.9 1.713-5.669 3.669-8.383 5.672-1.928 1.422-3.73 3.033-5.476 4.68-1.662 1.57-3.232 3.252-4.743 4.972a107.63 107.63 0 0 0-4.817 5.869c-1.1 1.444-2.091 2.983-3.018 4.547-1.639 2.766-3.256 5.549-4.754 8.392-.888 1.685-1.539 3.496-2.278 5.258-.32.762-.612 1.538-.89 2.317-.76 2.127-1.562 4.24-2.238 6.394-.605 1.93-1.18 3.882-1.555 5.865-.468 2.49-.996 5.021-1.011 7.538-.05 8.417-.262 16.84.394 25.251.219 2.8.268 5.613.423 8.418.046.834.172 1.666.294 2.494.138.937.324 1.867.458 2.805.018.126-.113.32-.23.412-1.47 1.152-2.72 2.462-3.642 4.136-.928 1.685-1.472 3.404-1.186 5.32.05.335.359.703.649.92.687.514 1.432.949 2.158 1.41 2.735 1.742 4.734 4.165 6.39 6.919 1.087 1.808 1.469 3.872 1.738 5.868.654 4.845.69 9.706-.226 14.566-.5 2.653-.976 5.295-1.938 7.824-.688 1.81-1.373 3.622-2.12 5.408-.359.857-.886 1.643-1.277 2.488-.115.249-.083.607-.016.891.106.45.303.88.45 1.321.451 1.343.803 2.73 1.365 4.024.974 2.243 2.056 4.44 3.134 6.636.644 1.314 1.301 2.628 2.064 3.872a160.884 160.884 0 0 0 3.949 6.09c1.254 1.847 2.496 3.713 3.899 5.443 2.078 2.563 4.251 5.052 6.463 7.5 1.866 2.066 3.748 4.138 5.798 6.013 2.511 2.298 5.096 4.518 7.699 6.715a43.097 43.097 0 0 1-1.576-8.741c-.313-5.05-.313-8.214-.313-12.59"/></g></svg>